<svg xmlns="http://www.w3.org/2000/svg" xmlns:xlink="http://www.w3.org/1999/xlink" viewBox="0,0,256,256" width="48px" height="48px" fill-rule="nonzero"><g fill="#000000" fill-rule="nonzero" stroke="none" stroke-width="1" stroke-linecap="butt" stroke-linejoin="miter" stroke-miterlimit="10" stroke-dasharray="" stroke-dashoffset="0" font-family="none" font-weight="none" font-size="none" text-anchor="none" style="mix-blend-mode: normal"><path d="M39.68,256c-21.91466,0 -39.68,-17.76534 -39.68,-39.68v-176.64c0,-21.91466 17.76534,-39.68 39.68,-39.68h176.64c21.91466,0 39.68,17.76534 39.68,39.68v176.64c0,21.91466 -17.76534,39.68 -39.68,39.68z" id="shape"></path></g><g fill="#ffffff" fill-rule="nonzero" stroke="none" stroke-width="1" stroke-linecap="butt" stroke-linejoin="miter" stroke-miterlimit="10" stroke-dasharray="" stroke-dashoffset="0" font-family="none" font-weight="none" font-size="none" text-anchor="none" style="mix-blend-mode: normal"><g transform="scale(5.33333,5.33333)"><path d="M29.16406,5.00977c-0.58285,-0.01234 -1.12007,0.31411 -1.3776,0.83713c-0.25753,0.52302 -0.18873,1.14787 0.17643,1.60232l10.46484,13.39648c0.51022,0.65314 1.4533,0.76901 2.10645,0.25879c0.65314,-0.51022 0.76901,-1.4533 0.25879,-2.10645l-10.4668,-13.39648c-0.27688,-0.36413 -0.70477,-0.58203 -1.16211,-0.5918zM23.38672,10.64648c-0.63718,0.004 -1.20231,0.41009 -1.40934,1.01271c-0.20703,0.60262 -0.01078,1.27028 0.48942,1.66502l13.21289,10.69922c0.41528,0.35019 0.98743,0.44852 1.4958,0.25706c0.50837,-0.19146 0.87351,-0.64279 0.95461,-1.17992c0.0811,-0.53714 -0.13452,-1.07615 -0.56369,-1.40917l-13.21094,-10.69726c-0.27181,-0.2265 -0.61494,-0.34964 -0.96875,-0.34766zM19.02539,17.42969c-0.69347,0.02197 -1.2814,0.51663 -1.42166,1.19612c-0.14026,0.67949 0.20373,1.36652 0.83182,1.6613l15.2793,7.45117c0.48184,0.23492 1.0524,0.1949 1.49673,-0.10497c0.44433,-0.29988 0.69489,-0.81404 0.65729,-1.34877c-0.0376,-0.53473 -0.35765,-1.00877 -0.83957,-1.24352l-15.2793,-7.45117c-0.22431,-0.11323 -0.47347,-0.1683 -0.72461,-0.16016zM16.45117,25.00977c-0.77737,-0.03121 -1.4496,0.53705 -1.54823,1.30877c-0.09863,0.77172 0.40909,1.49078 1.16932,1.65607l16.56445,3.82422c0.5296,0.14126 1.09409,-0.01757 1.47233,-0.41427c0.37824,-0.3967 0.51001,-0.9681 0.3437,-1.49038c-0.16631,-0.52228 -0.60423,-0.91228 -1.14221,-1.01722l-16.5625,-3.82422c-0.09727,-0.02421 -0.19673,-0.0386 -0.29687,-0.04297zM7.9707,28.97266c-1.1038,0.01618 -1.9858,0.92353 -1.9707,2.02734v9c0,2.18494 1.81506,4 4,4h28c2.18494,0 4,-1.81506 4,-4v-9c0.0102,-0.72127 -0.36875,-1.39216 -0.99175,-1.75578c-0.623,-0.36361 -1.39351,-0.36361 -2.01651,0c-0.623,0.36361 -1.00195,1.0345 -0.99175,1.75578v9h-28v-9c0.00739,-0.54026 -0.2041,-1.06052 -0.58634,-1.44239c-0.38224,-0.38187 -0.90271,-0.59286 -1.44296,-0.58495zM15.5,33c-0.54095,-0.00765 -1.04412,0.27656 -1.31683,0.74381c-0.27271,0.46725 -0.27271,1.04514 0,1.51238c0.27271,0.46725 0.77588,0.75146 1.31683,0.74381h17c0.54095,0.00765 1.04412,-0.27656 1.31683,-0.74381c0.27271,-0.46725 0.27271,-1.04514 0,-1.51238c-0.27271,-0.46725 -0.77588,-0.75146 -1.31683,-0.74381z"></path></g></g></svg>